<?xml version="1.0" encoding="UTF-8"?>
<svg version="1.1" xmlns="http://www.w3.org/2000/svg" width="612" height="612">
<path d="M0 0 C201.96 0 403.92 0 612 0 C612 201.96 612 403.92 612 612 C410.04 612 208.08 612 0 612 C0 410.04 0 208.08 0 0 Z " fill="#FEFEFE" transform="translate(0,0)"/>
<path d="M0 0 C24.09 0 48.18 0 73 0 C73 27.06 73 54.12 73 82 C97.09 82 121.18 82 146 82 C146 106.42 146 130.84 146 156 C121.91 156 97.82 156 73 156 C73.0825 164.848125 73.165 173.69625 73.25 182.8125 C73.27368652 186.96936401 73.27368652 186.96936401 73.29785156 191.21020508 C73.32725121 193.43833444 73.35808228 195.66644557 73.390625 197.89453125 C73.39231689 199.59144104 73.39231689 199.59144104 73.39404297 201.32263184 C73.59028649 212.36611607 76.18321762 221.08848727 83.9140625 229.12109375 C91.54321106 235.99304217 99.4724688 236.35620672 109.38671875 236.23828125 C113.68744319 235.95466591 116.22089445 234.93154283 120 233 C124.14021718 233.2629825 126.2221644 235.84783019 129.04394531 238.67163086 C129.77633926 239.39854881 129.77633926 239.39854881 130.52352905 240.14015198 C132.13254688 241.74107523 133.7304705 243.35258629 135.328125 244.96484375 C136.44290933 246.08014669 137.55821207 247.1949317 138.67401123 248.30921936 C141.00878664 250.64408444 143.33831016 252.98402856 145.6640625 255.32788086 C148.65068806 258.33723274 151.64830234 261.33534423 154.64967728 264.32997799 C156.95253649 266.62950241 159.25039192 268.93397284 161.54665375 271.24008369 C162.65056273 272.34785046 163.75583379 273.45426157 164.8624649 274.55930901 C166.40451795 276.10099277 167.93993293 277.64898676 169.47363281 279.19897461 C170.34981262 280.07976181 171.22599243 280.96054901 172.12872314 281.86802673 C174 284 174 284 174 286 C171.86722877 287.64860765 169.74950708 289.14944532 167.5 290.625 C166.82364502 291.0686792 166.14729004 291.5123584 165.45043945 291.96948242 C140.92779853 307.74231393 112.41606086 314.48091253 83.35961914 308.82177734 C75.56508102 307.04537545 68.18671784 304.52945514 61 301 C59.94425781 300.48566406 58.88851562 299.97132813 57.80078125 299.44140625 C44.12243373 292.43226486 29.60170582 282.11977352 21 269 C21 268.34 21 267.68 21 267 C20.34 267 19.68 267 19 267 C2.63323 239.0535785 -0.49039507 215.55429523 -0.1875 183.3125 C-0.125625 173.969375 -0.06375 164.62625 0 155 C35.145 154.505 35.145 154.505 71 154 C65.8746875 149.83761719 60.749375 145.67523438 55.46875 141.38671875 C48.69295852 135.61571871 42.06188021 129.70024529 35.5 123.6875 C34.6567152 122.9152647 33.8134304 122.1430294 32.94459152 121.34739304 C12.66227147 102.58285712 -3.31203544 85.49802678 -4.87274551 56.91261482 C-5.10350575 50.27153532 -4.87296889 43.69036724 -4.4375 37.0625 C-4.37672272 36.13077847 -4.31594543 35.19905693 -4.25332642 34.23910141 C-3.44241927 22.67832476 -1.83155985 11.49096002 0 0 Z " fill="#CD1A8B" transform="translate(219,151)"/>
<path d="M0 0 C24.09 0 48.18 0 73 0 C73 27.39 73 54.78 73 83 C53.53 83.33 34.06 83.66 14 84 C13.67 85.65 13.34 87.3 13 89 C13.66 89 14.32 89 15 89 C17 89 19 89 21 89 C20.979375 90.11375 20.95875 91.2275 20.9375 92.375 C20.73619282 95.83215921 20.73619282 95.83215921 22 98 C22.78375 97.835 23.5675 97.67 24.375 97.5 C27 97 27 97 29 97 C29 99.64 29 102.28 29 105 C29.66 105.33 30.32 105.66 31 106 C31.33 106.99 31.66 107.98 32 109 C32.99 109 33.98 109 35 109 C35.99 110.485 35.99 110.485 37 112 C39.55183404 113.20450304 39.55183404 113.20450304 42 114 C42 114.66 42 115.32 42 116 C42.99 115.67 43.98 115.34 45 115 C45 116.98 45 118.96 45 121 C47.31 121.33 49.62 121.66 52 122 C52.66 124.64 53.32 127.28 54 130 C55.32 129.67 56.64 129.34 58 129 C59.75 130.1875 59.75 130.1875 61 132 C61 133.32 61 134.64 61 136 C62.65 136.33 64.3 136.66 66 137 C65.67 138.32 65.34 139.64 65 141 C66.32 141 67.64 141 69 141 C68.67 142.65 68.34 144.3 68 146 C69.98 145.67 71.96 145.34 74 145 C74.99 147.97 75.98 150.94 77 154 C79.64 154 82.28 154 85 154 C85 154.33 85 154.66 85 155 C83.17093073 155.19205227 81.33575186 155.32617346 79.5 155.4375 C78.4790625 155.51871094 77.458125 155.59992188 76.40625 155.68359375 C72.84622788 154.96913977 72.23474031 154.56601519 69.72460938 152.20629883 C66.57081764 149.34739265 63.33960168 146.65303605 59.99474239 144.02485847 C50.35319983 136.44878783 41.07171685 128.49898394 32 120.25 C31.23909687 119.5587566 30.47819374 118.8675132 29.69423294 118.15532303 C10.32316968 100.35786413 -3.04993749 84.37818828 -4.43253708 57.34926987 C-5.0664211 38.12569522 -2.73302563 18.9816806 0 0 Z " fill="#7D1C79" transform="translate(219,151)"/>
<path d="M0 0 C10.0757815 -0.04657209 20.15153692 -0.08199459 30.22740459 -0.10362434 C34.90725729 -0.11401142 39.58703573 -0.12807662 44.2668457 -0.15087891 C48.79264354 -0.17278993 53.31837046 -0.18460667 57.8442173 -0.18975449 C59.56116666 -0.19341776 61.27811263 -0.20057002 62.99503136 -0.21146011 C72.88915208 -0.27165628 82.25564028 0.08528118 92 2 C92 2.33 92 2.66 92 3 C90.35 3.33 88.7 3.66 87 4 C95.7904777 4.69825071 104.44472292 5.09704456 113.26953125 4.9375 C116.3092578 4.98842736 119.21516278 5.18981873 122.2331543 5.50390625 C123.12761765 5.59615479 124.02208099 5.68840332 124.94364929 5.78344727 C125.62224503 5.85490967 126.30084076 5.92637207 127 6 C127.02312684 14.32728947 127.04091683 22.65456563 127.05181217 30.98187923 C127.05704026 34.84820118 127.06413654 38.71450121 127.07543945 42.58081055 C127.086271 46.30903401 127.0922774 50.03723634 127.09487724 53.76547432 C127.09673101 55.19089656 127.10035071 56.61631759 127.10573006 58.04173088 C127.11294393 60.03163408 127.11340808 62.02155834 127.11352539 64.01147461 C127.115746 65.14620712 127.11796661 66.28093964 127.12025452 67.45005798 C127 70 127 70 126 71 C123.99187548 71.1599122 121.97828598 71.25170421 119.96484375 71.31640625 C118.69133057 71.35846191 117.41781738 71.40051758 116.10571289 71.44384766 C114.71632246 71.48388251 113.32691769 71.52342269 111.9375 71.5625 C111.24204071 71.58334656 110.54658142 71.60419312 109.83004761 71.62567139 C100.40846597 71.90678316 90.98867466 72.10023575 81.5625 72.125 C80.60657959 72.12959229 79.65065918 72.13418457 78.66577148 72.13891602 C73.35291309 72.12701338 68.25715686 71.77473891 63 71 C62.01 68.03 61.02 65.06 60 62 C57.03 62.495 57.03 62.495 54 63 C54.33 61.35 54.66 59.7 55 58 C53.68 58 52.36 58 51 58 C51.33 56.68 51.66 55.36 52 54 C50.02 54 48.04 54 46 54 C46.33 52.35 46.66 50.7 47 49 C46.01 48.67 45.02 48.34 44 48 C44 47.34 44 46.68 44 46 C43.01 46 42.02 46 41 46 C40.505 46.99 40.505 46.99 40 48 C38.92474806 45.34771188 37.90543849 42.71631546 37 40 C33.99152582 38.77479736 33.99152582 38.77479736 31 38 C30.67 36.35 30.34 34.7 30 33 C29.34 33 28.68 33 28 33 C28 32.34 28 31.68 28 31 C27.113125 30.731875 26.22625 30.46375 25.3125 30.1875 C17.83146067 27.50561798 17.83146067 27.50561798 15.98828125 24.16796875 C14.4213392 20.34633181 13.68572029 18.02385636 15 14 C14.01 14.33 13.02 14.66 12 15 C11.01 14.67 10.02 14.34 9 14 C8.67 14.66 8.34 15.32 8 16 C6.19588033 13.24075815 5.9872755 12.11027897 6.375 8.75 C6.58125 7.8425 6.7875 6.935 7 6 C6.01 6.33 5.02 6.66 4 7 C3.01 6.67 2.02 6.34 1 6 C0.67 6.66 0.34 7.32 0 8 C-1.125 6.25 -1.125 6.25 -2 4 C-1.0546875 1.859375 -1.0546875 1.859375 0 0 Z " fill="#AF1C8A" transform="translate(233,234)"/>
<path d="M0 0 C24.09 0 48.18 0 73 0 C73 27.06 73 54.12 73 82 C72.67 82 72.34 82 72 82 C71.67 75.73 71.34 69.46 71 63 C70.67 63 70.34 63 70 63 C68.58774538 55.15414101 69.3910331 49.52553663 70 41 C48.55 41.33 27.1 41.66 5 42 C4.67 46.95 4.34 51.9 4 57 C2.4375 61.9375 2.4375 61.9375 1 65 C0.67 65 0.34 65 0 65 C0 43.55 0 22.1 0 0 Z " fill="#7C2389" transform="translate(219,151)"/>
<path d="M0 0 C24.09 0 48.18 0 73 0 C73 24.42 73 48.84 73 74 C48.91 74 24.82 74 0 74 C0 73.67 0 73.34 0 73 C22.11 72.34 44.22 71.68 67 71 C67.33 49.88 67.66 28.76 68 7 C57.44 7 46.88 7 36 7 C33.03 6.67 30.06 6.34 27 6 C27.99 5.01 28.98 4.02 30 3 C20.1 2.34 10.2 1.68 0 1 C0 0.67 0 0.34 0 0 Z " fill="#E14EA3" transform="translate(292,233)"/>
<path d="M0 0 C1.051875 0.2475 1.051875 0.2475 2.125 0.5 C5.13888194 1.02415338 7.94713625 1.07099683 11 1 C10.67 2.98 10.34 4.96 10 7 C10.66 7 11.32 7 12 7 C14 7 16 7 18 7 C17.979375 8.11375 17.95875 9.2275 17.9375 10.375 C17.73619282 13.83215921 17.73619282 13.83215921 19 16 C19.78375 15.835 20.5675 15.67 21.375 15.5 C24 15 24 15 26 15 C26 17.64 26 20.28 26 23 C26.66 23.33 27.32 23.66 28 24 C28.33 24.99 28.66 25.98 29 27 C29.99 27 30.98 27 32 27 C32.66 27.99 33.32 28.98 34 30 C36.55183404 31.20450304 36.55183404 31.20450304 39 32 C39 32.66 39 33.32 39 34 C39.99 33.67 40.98 33.34 42 33 C42 34.98 42 36.96 42 39 C44.31 39.33 46.62 39.66 49 40 C49.66 42.64 50.32 45.28 51 48 C52.98 47.505 52.98 47.505 55 47 C56.75 48.1875 56.75 48.1875 58 50 C58 51.32 58 52.64 58 54 C59.65 54.33 61.3 54.66 63 55 C62.67 56.32 62.34 57.64 62 59 C63.32 59 64.64 59 66 59 C65.67 60.65 65.34 62.3 65 64 C66.98 63.67 68.96 63.34 71 63 C71.99 65.97 72.98 68.94 74 72 C76.64 72 79.28 72 82 72 C82 72.33 82 72.66 82 73 C80.17093073 73.19205227 78.33575186 73.32617346 76.5 73.4375 C75.4790625 73.51871094 74.458125 73.59992188 73.40625 73.68359375 C63.59897232 71.71539009 54.34740945 58.47228906 47.4375 51.53515625 C46.03667785 50.13246609 44.63563257 48.72999872 43.234375 47.32774353 C39.56945113 43.6590246 35.90754192 39.98731122 32.24627686 36.31494141 C28.50065494 32.55904022 24.75215587 28.80601289 21.00390625 25.05273438 C13.66647047 17.70461446 6.33221995 10.3533242 -1 3 C-0.67 2.01 -0.34 1.02 0 0 Z " fill="#84268A" transform="translate(222,233)"/>
<path d="M0 0 C23.76 0 47.52 0 72 0 C72 0.66 72 1.32 72 2 C69.18784488 3.40607756 66.8595578 3.11950486 63.71435547 3.11352539 C63.07032776 3.11367142 62.42630005 3.11381744 61.76275635 3.1139679 C59.63086598 3.1132704 57.49906263 3.10548566 55.3671875 3.09765625 C53.89031014 3.09579149 52.41343216 3.09436786 50.93655396 3.09336853 C47.04687801 3.08954792 43.15723933 3.07972152 39.26757812 3.06866455 C34.60198232 3.0566435 29.93637407 3.05204602 25.27076721 3.04621124 C18.18048555 3.03650953 11.09028566 3.0173498 4 3 C4 19.5 4 36 4 53 C3.67 53 3.34 53 3 53 C3 36.17 3 19.34 3 2 C2.34 1.67 1.68 1.34 1 1 C1.16265854 1.55975525 1.32531708 2.1195105 1.49290466 2.69622803 C2.03542007 5.16091602 2.12016335 7.33792627 2.11352539 9.86035156 C2.11341209 11.30139252 2.11341209 11.30139252 2.11329651 12.77154541 C2.10813522 13.80084167 2.10297394 14.83013794 2.09765625 15.890625 C2.0962413 16.95037537 2.09482635 18.01012573 2.09336853 19.10198975 C2.08777382 22.48468862 2.07522225 25.86732115 2.0625 29.25 C2.05748432 31.54426988 2.05292153 33.83854079 2.04882812 36.1328125 C2.03780611 41.75523094 2.02107321 47.37761073 2 53 C1.67 53 1.34 53 1 53 C0.06790508 35.30259147 0 17.74963968 0 0 Z " fill="#AC1E89" transform="translate(219,307)"/>
<path d="M0 0 C1.051875 0.2475 1.051875 0.2475 2.125 0.5 C5.13888194 1.02415338 7.94713625 1.07099683 11 1 C10.67 2.98 10.34 4.96 10 7 C10.66 7 11.32 7 12 7 C14 7 16 7 18 7 C17.979375 8.11375 17.95875 9.2275 17.9375 10.375 C17.73619282 13.83215921 17.73619282 13.83215921 19 16 C19.78375 15.835 20.5675 15.67 21.375 15.5 C24 15 24 15 26 15 C26 17.64 26 20.28 26 23 C26.66 23.33 27.32 23.66 28 24 C28.33 24.99 28.66 25.98 29 27 C29.99 27 30.98 27 32 27 C34.1519437 30.22791555 34.20086443 31.28400809 34 35 C34.99 35.33 35.98 35.66 37 36 C35.22344971 36.68797302 35.22344971 36.68797302 33 37 C31.22821045 35.82948303 31.22821045 35.82948303 29.42480469 33.99243164 C28.40419952 32.97125999 28.40419952 32.97125999 27.36297607 31.92945862 C26.63991272 31.18058884 25.91684937 30.43171906 25.171875 29.66015625 C24.42286926 28.90407578 23.67386353 28.1479953 22.90216064 27.3690033 C20.50615797 24.94495152 18.12808872 22.50411629 15.75 20.0625 C14.13135792 18.41878903 12.51158012 16.77619562 10.890625 15.13476562 C6.91380071 11.1027322 2.95157599 7.0567726 -1 3 C-0.67 2.01 -0.34 1.02 0 0 Z " fill="#742789" transform="translate(222,233)"/>
<path d="M0 0 C22.77 0 45.54 0 69 0 C69 0.33 69 0.66 69 1 C47.55 1 26.1 1 4 1 C4 11.56 4 22.12 4 33 C3.34 33 2.68 33 2 33 C1.67 43.56 1.34 54.12 1 65 C0.67 65 0.34 65 0 65 C0 43.55 0 22.1 0 0 Z " fill="#752A82" transform="translate(219,151)"/>
<path d="M0 0 C17.16 0 34.32 0 52 0 C51.67 0.99 51.34 1.98 51 3 C46.38 3.33 41.76 3.66 37 4 C37 4.66 37 5.32 37 6 C33.68751922 6.02945031 30.37507289 6.04694801 27.0625 6.0625 C25.67321289 6.07506836 25.67321289 6.07506836 24.25585938 6.08789062 C18.41699697 6.10837786 12.79086947 5.75429787 7 5 C7.99 4.01 8.98 3.02 10 2 C6.7 1.67 3.4 1.34 0 1 C0 0.67 0 0.34 0 0 Z " fill="#D8198C" transform="translate(312,234)"/>
<path d="M0 0 C22.11 0 44.22 0 67 0 C67.33 17.49 67.66 34.98 68 53 C64.25547665 47.38321497 64.80675601 40.77614475 64.68359375 34.2265625 C64.66494263 33.40696045 64.6462915 32.5873584 64.6270752 31.74291992 C64.55917178 28.7037149 64.49877252 25.66434594 64.4375 22.625 C64.293125 15.81875 64.14875 9.0125 64 2 C32.32 1.505 32.32 1.505 0 1 C0 0.67 0 0.34 0 0 Z " fill="#AF1E88" transform="translate(224,311)"/>
<path d="M0 0 C14.85 0 29.7 0 45 0 C45 0.99 45 1.98 45 3 C47.64 3 50.28 3 53 3 C53 3.66 53 4.32 53 5 C55.64 5 58.28 5 61 5 C61 5.33 61 5.66 61 6 C54.4 6 47.8 6 41 6 C41 4.35 41 2.7 41 1 C40.896875 1.639375 40.79375 2.27875 40.6875 2.9375 C40.460625 3.618125 40.23375 4.29875 40 5 C39.01 5.33 38.02 5.66 37 6 C37 4.68 37 3.36 37 2 C29.41 2 21.82 2 14 2 C13.67 2.66 13.34 3.32 13 4 C10.36 4 7.72 4 5 4 C5 3.34 5 2.68 5 2 C3.35 2 1.7 2 0 2 C0 1.34 0 0.68 0 0 Z " fill="#A51E8C" transform="translate(251,234)"/>
<path d="M0 0 C1.2065625 0.0309375 1.2065625 0.0309375 2.4375 0.0625 C2.1075 1.3825 1.7775 2.7025 1.4375 4.0625 C2.7575 4.0625 4.0775 4.0625 5.4375 4.0625 C5.1075 5.7125 4.7775 7.3625 4.4375 9.0625 C6.4175 8.7325 8.3975 8.4025 10.4375 8.0625 C11.4275 11.0325 12.4175 14.0025 13.4375 17.0625 C16.0775 17.0625 18.7175 17.0625 21.4375 17.0625 C21.4375 17.3925 21.4375 17.7225 21.4375 18.0625 C11.30608527 19.12629855 11.30608527 19.12629855 7.0703125 16.71484375 C5.05298451 14.92907675 3.24727405 13.05686297 1.4375 11.0625 C0.82519531 10.51464844 0.21289062 9.96679688 -0.41796875 9.40234375 C-2.125 7.875 -2.125 7.875 -4.5625 5.0625 C-4.07670784 1.46231429 -3.79946494 0.09266988 0 0 Z " fill="#99248A" transform="translate(282.5625,287.9375)"/>
<path d="M0 0 C0.99 0.33 1.98 0.66 3 1 C3 23.77 3 46.54 3 70 C2.01 69.67 1.02 69.34 0 69 C0 46 0 23 0 0 Z " fill="#EB148A" transform="translate(361,236)"/>
<path d="M0 0 C1.98 0.495 1.98 0.495 4 1 C3.34 1 2.68 1 2 1 C2 17.83 2 34.66 2 52 C2.66 52 3.32 52 4 52 C3.88660796 54.64680904 3.75987127 57.29177518 3.625 59.9375 C3.5940625 60.69224609 3.563125 61.44699219 3.53125 62.22460938 C3.4273685 64.15507395 3.22104386 66.07942081 3 68 C2.01 68.495 2.01 68.495 1 69 C-0.89668785 59.85227663 -1.24680038 51.07241385 -1.125 41.75 C-1.11493575 40.40755887 -1.10581607 39.06511031 -1.09765625 37.72265625 C-1.07433912 34.48157511 -1.04161552 31.24088898 -1 28 C-0.67 28 -0.34 28 0 28 C0 18.76 0 9.52 0 0 Z " fill="#C11D8C" transform="translate(220,308)"/>
<path d="M0 0 C3.41012797 0.58235355 5.04281461 1.67486112 7.453125 4.125 C8.071875 4.74890625 8.690625 5.3728125 9.328125 6.015625 C10.27945312 6.99789063 10.27945312 6.99789063 11.25 8 C11.8996875 8.65484375 12.549375 9.3096875 13.21875 9.984375 C18 14.84598214 18 14.84598214 18 16 C14.37 16.33 10.74 16.66 7 17 C5.5216774 14.04335481 5.93967217 11.25770263 6 8 C3.36 7.67 0.72 7.34 -2 7 C-2 6.34 -2 5.68 -2 5 C-1.34 5 -0.68 5 0 5 C0 3.35 0 1.7 0 0 Z " fill="#DB1D8F" transform="translate(370,415)"/>
<path d="M0 0 C0.33 0 0.66 0 1 0 C1 5.28 1 10.56 1 16 C1.66 16 2.32 16 3 16 C3 10.72 3 5.44 3 0 C3.33 0 3.66 0 4 0 C4.29143833 37.77489147 4.29143833 37.77489147 1 45 C0.67 45 0.34 45 0 45 C0 30.15 0 15.3 0 0 Z " fill="#861D8B" transform="translate(220,168)"/>
<path d="M0 0 C1.5778125 0.00966797 1.5778125 0.00966797 3.1875 0.01953125 C6 0.1875 6 0.1875 9 1.1875 C9 3.4975 9 5.8075 9 8.1875 C6.18604713 9.30900295 5.00200428 9.18812999 2.0546875 8.26171875 C1.00539063 7.80410156 -0.04390625 7.34648437 -1.125 6.875 C-2.17945313 6.42511719 -3.23390625 5.97523438 -4.3203125 5.51171875 C-7 4.1875 -7 4.1875 -9 2.1875 C-5.52207183 -0.13111878 -4.09700748 -0.05522927 0 0 Z " fill="#E41E8F" transform="translate(287,447.8125)"/>
<path d="M0 0 C4.2498709 -0.08708752 8.49951239 -0.14042181 12.75 -0.1875 C13.9565625 -0.21263672 15.163125 -0.23777344 16.40625 -0.26367188 C17.56640625 -0.27333984 18.7265625 -0.28300781 19.921875 -0.29296875 C20.99018555 -0.3086792 22.05849609 -0.32438965 23.15917969 -0.34057617 C26.33115522 0.03970106 27.67217242 0.87106908 30 3 C28.02 3 26.04 3 24 3 C23.67 3.99 23.34 4.98 23 6 C17.72 5.67 12.44 5.34 7 5 C7.99 4.01 8.98 3.02 10 2 C6.7 1.67 3.4 1.34 0 1 C0 0.67 0 0.34 0 0 Z " fill="#C51A8B" transform="translate(312,234)"/>
<path d="M0 0 C0 0.66 0 1.32 0 2 C0.99 2.33 1.98 2.66 3 3 C-2.93915684 5.50710309 -8.70277443 7.60061654 -15 9 C-15.33 8.34 -15.66 7.68 -16 7 C-15.01 6.34 -14.02 5.68 -13 5 C-12.74969023 2.41619823 -12.74969023 2.41619823 -13 0 C-8.38926889 -1.29676812 -4.66159911 -0.71109139 0 0 Z " fill="#E3188B" transform="translate(365,449)"/>
<path d="M0 0 C5 2 5 2 6.36328125 4.53125 C6.67652344 5.5109375 6.98976563 6.490625 7.3125 7.5 C7.63863281 8.4796875 7.96476562 9.459375 8.30078125 10.46875 C9 13 9 13 9 15 C7.35 15.33 5.7 15.66 4 16 C3.34 15.01 2.68 14.02 2 13 C1.34 13.99 0.68 14.98 0 16 C0 10.72 0 5.44 0 0 Z " fill="#C11B88" transform="translate(288,360)"/>
<path d="M0 0 C0.33 0.66 0.66 1.32 1 2 C2.65 2 4.3 2 6 2 C6.33 1.34 6.66 0.68 7 0 C7.66 1.32 8.32 2.64 9 4 C6.92435256 5.51174322 4.84063797 7.0092453 2.75 8.5 C2.16347656 8.92925781 1.57695312 9.35851562 0.97265625 9.80078125 C-2.39450265 12.18427575 -3.75299728 13 -8 13 C-8 11.02 -8 9.04 -8 7 C-5.36 7 -2.72 7 0 7 C0 4.69 0 2.38 0 0 Z " fill="#E3168D" transform="translate(384,433)"/>
<path d="M0 0 C1.78409802 3.06246747 2.22880021 5.22079273 2.125 8.75 C2.10695312 9.54921875 2.08890625 10.3484375 2.0703125 11.171875 C2.03550781 12.07679688 2.03550781 12.07679688 2 13 C3.98 13 5.96 13 8 13 C8 13.66 8 14.32 8 15 C3.91257012 15.88376862 1.04916379 16.34972126 -3 15 C-3 11.7 -3 8.4 -3 5 C-2.01 5 -1.02 5 0 5 C0 3.35 0 1.7 0 0 Z " fill="#6A1A65" transform="translate(222,219)"/>
<path d="M0 0 C0 0.99 0 1.98 0 3 C-0.99 3.495 -0.99 3.495 -2 4 C-1.34 4.33 -0.68 4.66 0 5 C0 5.66 0 6.32 0 7 C-3.96 6.67 -7.92 6.34 -12 6 C-12 5.34 -12 4.68 -12 4 C-13.32 3.67 -14.64 3.34 -16 3 C-13.71068726 2.30364247 -11.4191243 1.61765623 -9.125 0.9375 C-8.47402344 0.73833984 -7.82304687 0.53917969 -7.15234375 0.33398438 C-2.2265625 -1.11328125 -2.2265625 -1.11328125 0 0 Z " fill="#F4FDF9" transform="translate(360,456)"/>
<path d="M0 0 C9.57 0 19.14 0 29 0 C29 0.33 29 0.66 29 1 C27.39318359 1.07347656 27.39318359 1.07347656 25.75390625 1.1484375 C24.35674361 1.22345294 22.9596095 1.2990013 21.5625 1.375 C20.85544922 1.4059375 20.14839844 1.436875 19.41992188 1.46875 C17.60760812 1.57280629 15.80182012 1.77919892 14 2 C13.67 2.66 13.34 3.32 13 4 C10.36 4 7.72 4 5 4 C5 3.34 5 2.68 5 2 C3.35 2 1.7 2 0 2 C0 1.34 0 0.68 0 0 Z " fill="#7B2188" transform="translate(251,234)"/>
<path d="M0 0 C0.33 0 0.66 0 1 0 C1.05793591 4.43744539 1.09357467 8.87479389 1.125 13.3125 C1.15013672 15.20645508 1.15013672 15.20645508 1.17578125 17.13867188 C1.18222656 18.34716797 1.18867188 19.55566406 1.1953125 20.80078125 C1.20578613 21.91622314 1.21625977 23.03166504 1.22705078 24.1809082 C1 27 1 27 -1 30 C-2.01258874 23.5844191 -1.98396689 17.53736523 -1.625 11.0625 C-1.58117187 10.10537109 -1.53734375 9.14824219 -1.4921875 8.16210938 C-1.13299949 1.13299949 -1.13299949 1.13299949 0 0 Z " fill="#881E87" transform="translate(290,184)"/>
<path d="M0 0 C4.88049925 3.9419417 9.0580583 8.11950075 13 13 C9.79976334 13.22327233 7.3173916 13.10098824 4.25 12.125 C0.72620068 8.79696731 0.5872566 4.67175775 0 0 Z " fill="#D52791" transform="translate(353,396)"/>
<path d="M0 0 C0.825 0.185625 1.65 0.37125 2.5 0.5625 C6.61926719 1.0774084 9.90823355 0.63492928 14 0 C14 0.99 14 1.98 14 3 C8.72 3.66 3.44 4.32 -2 5 C-1.34 3.35 -0.68 1.7 0 0 Z " fill="#EA1A8E" transform="translate(334,456)"/>
<path d="M0 0 C1.05960937 0.26941406 2.11921875 0.53882813 3.2109375 0.81640625 C4.00757813 1.02136719 4.80421875 1.22632813 5.625 1.4375 C5.625 1.7675 5.625 2.0975 5.625 2.4375 C-2.00095318 2.89505719 -8.9779854 1.18286299 -16.375 -0.5625 C-11.13550223 -3.98832547 -5.6476374 -1.44328511 0 0 Z " fill="#E92E96" transform="translate(312.375,458.5625)"/>
<path d="M0 0 C0.125 6.75 0.125 6.75 -1 9 C-0.34 9 0.32 9 1 9 C0.67 9.99 0.34 10.98 0 12 C-1.98 10.35 -3.96 8.7 -6 7 C-5.34 6.67 -4.68 6.34 -4 6 C-4.33 4.35 -4.66 2.7 -5 1 C-2 0 -2 0 0 0 Z " fill="#DD1F8F" transform="translate(256,424)"/>
<path d="M0 0 C4.29 0.66 8.58 1.32 13 2 C10 5 10 5 7.30078125 5.07421875 C6.31464844 4.94660156 5.32851563 4.81898438 4.3125 4.6875 C2.82169922 4.50767578 2.82169922 4.50767578 1.30078125 4.32421875 C0.54152344 4.21722656 -0.21773438 4.11023438 -1 4 C-0.67 2.68 -0.34 1.36 0 0 Z " fill="#F7EEF6" transform="translate(297,458)"/>
<path d="M0 0 C5.28 0 10.56 0 16 0 C15.34 0.66 14.68 1.32 14 2 C13.30251417 3.31747324 12.63040043 4.64914193 12 6 C12 4.35 12 2.7 12 1 C11.8453125 1.9590625 11.8453125 1.9590625 11.6875 2.9375 C11.460625 3.618125 11.23375 4.29875 11 5 C10.01 5.33 9.02 5.66 8 6 C8 4.68 8 3.36 8 2 C5.36 2 2.72 2 0 2 C0 1.34 0 0.68 0 0 Z " fill="#971F87" transform="translate(280,234)"/>
<path d="M0 0 C2.2689512 1.21550957 3.2665714 2.86653367 4.75 4.9375 C2.79196493 4.99139087 0.83351091 5.03024217 -1.125 5.0625 C-2.21554687 5.08570313 -3.30609375 5.10890625 -4.4296875 5.1328125 C-7.25 4.9375 -7.25 4.9375 -9.25 2.9375 C-2.96848739 -0.08245798 -2.96848739 -0.08245798 0 0 Z " fill="#CF3093" transform="translate(341.25,384.0625)"/>
<path d="M0 0 C0.99 0.33 1.98 0.66 3 1 C2.67 1.66 2.34 2.32 2 3 C1.84391977 5.40560273 1.74195542 7.78702772 1.68359375 10.1953125 C1.66281265 10.90275604 1.64203156 11.61019958 1.62062073 12.33908081 C1.55518922 14.60095425 1.49627026 16.86294462 1.4375 19.125 C1.39430867 20.65756422 1.35069418 22.19011657 1.30664062 23.72265625 C1.19951445 27.48165073 1.0982291 31.24076292 1 35 C0.67 35 0.34 35 0 35 C0 23.45 0 11.9 0 0 Z " fill="#EFFEF8" transform="translate(293,309)"/>
<path d="M0 0 C1.07571119 1.00690237 2.14261819 2.02364056 3.1875 3.0625 C2.5275 3.7225 1.8675 4.3825 1.1875 5.0625 C0.8575 4.4025 0.5275 3.7425 0.1875 3.0625 C-0.8025 3.7225 -1.7925 4.3825 -2.8125 5.0625 C-3.4725 4.7325 -4.1325 4.4025 -4.8125 4.0625 C-4.8125 3.0725 -4.8125 2.0825 -4.8125 1.0625 C-6.75259522 -0.64282323 -6.75259522 -0.64282323 -8.8125 -1.9375 C-4.73883118 -3.66572314 -3.14663999 -2.73092536 0 0 Z " fill="#CE2993" transform="translate(349.8125,391.9375)"/>
<path d="M0 0 C4.29 0 8.58 0 13 0 C13.33 0.66 13.66 1.32 14 2 C11.51245214 3.24377393 9.77344699 3.13306235 7 3.125 C6.113125 3.12757813 5.22625 3.13015625 4.3125 3.1328125 C2 3 2 3 0 2 C0 1.34 0 0.68 0 0 Z " fill="#EA178B" transform="translate(316,458)"/>
<path d="M0 0 C1.65 0 3.3 0 5 0 C5.82269275 3.90779056 6.2807202 6.15783941 5 10 C2.69 8.35 0.38 6.7 -2 5 C1 4 1 4 3 4 C3 3.34 3 2.68 3 2 C2.01 1.67 1.02 1.34 0 1 C0 0.67 0 0.34 0 0 Z " fill="#E22791" transform="translate(258,432)"/>
<path d="M0 0 C1.98 0.66 3.96 1.32 6 2 C3.42910583 4.11180592 1.36939433 5.66306057 -2 6 C-2.66 5.34 -3.32 4.68 -4 4 C-3.67 3.01 -3.34 2.02 -3 1 C-2.01 1.33 -1.02 1.66 0 2 C0 1.34 0 0.68 0 0 Z " fill="#F9F0F7" transform="translate(276,450)"/>
<path d="M0 0 C-6.40717489 4.92466368 -6.40717489 4.92466368 -10.3125 5.109375 C-12.5 4.8125 -12.5 4.8125 -16 4 C-13.03017788 2.41839705 -10.09120779 1.29656358 -6.875 0.3125 C-6.00617188 0.04050781 -5.13734375 -0.23148437 -4.2421875 -0.51171875 C-2 -1 -2 -1 0 0 Z " fill="#FAD5EF" transform="translate(360,456)"/>
<path d="M0 0 C1.32 0.99 2.64 1.98 4 3 C3.67 3.99 3.34 4.98 3 6 C0.97954558 5.39816251 -1.02111039 4.72693904 -3 4 C-3.33 3.34 -3.66 2.68 -4 2 C-2.68 1.34 -1.36 0.68 0 0 Z " fill="#E42B94" transform="translate(271,442)"/>
<path d="M0 0 C2.64 0.33 5.28 0.66 8 1 C8 2.32 8 3.64 8 5 C7.01 5.33 6.02 5.66 5 6 C3.35 4.02 1.7 2.04 0 0 Z " fill="#F5EFF3" transform="translate(382,424)"/>
<path d="M0 0 C0.28875 0.61875 0.5775 1.2375 0.875 1.875 C1.93720042 4.13325765 1.93720042 4.13325765 4 6 C3.34 6.66 2.68 7.32 2 8 C0.02 5.69 -1.96 3.38 -4 1 C-2 0 -2 0 0 0 Z " fill="#DD2C94" transform="translate(247,422)"/>
<path d="M0 0 C1.66905241 3.33810482 2.8741386 6.46157845 4 10 C3.34 10 2.68 10 2 10 C2 9.34 2 8.68 2 8 C1.34 8 0.68 8 0 8 C-0.33 8.66 -0.66 9.32 -1 10 C-0.67 6.7 -0.34 3.4 0 0 Z " fill="#CB3A97" transform="translate(292,362)"/>
<path d="M0 0 C-3.79541663 2.21399303 -7.75629421 3.00980198 -12 4 C-12.33 3.34 -12.66 2.68 -13 2 C-8.50343896 -0.24828052 -4.92127034 -0.16682272 0 0 Z " fill="#E3268E" transform="translate(362,454)"/>
<path d="M0 0 C0.99 0.66 1.98 1.32 3 2 C3 2.66 3 3.32 3 4 C0 6 0 6 -4 6 C-4 5.34 -4 4.68 -4 4 C-3.34 4 -2.68 4 -2 4 C-2 3.34 -2 2.68 -2 2 C-1.34 2 -0.68 2 0 2 C0 1.34 0 0.68 0 0 Z " fill="#D93695" transform="translate(390,433)"/>
<path d="M0 0 C1.89213369 2.38573379 3.02391783 4.07175348 4 7 C3.01 7 2.02 7 1 7 C-0.33981486 7.3062434 -1.67511887 7.63451555 -3 8 C-3 7.34 -3 6.68 -3 6 C-2.34 5.67 -1.68 5.34 -1 5 C-0.34444881 2.47266765 -0.34444881 2.47266765 0 0 Z " fill="#F6EFF6" transform="translate(228,400)"/>
<path d="M0 0 C0.66 0 1.32 0 2 0 C2 1.98 2 3.96 2 6 C0.125 6.625 0.125 6.625 -2 7 C-2.66 6.34 -3.32 5.68 -4 5 C-3.34 5 -2.68 5 -2 5 C-2 4.34 -2 3.68 -2 3 C-1.34 3 -0.68 3 0 3 C0 2.01 0 1.02 0 0 Z " fill="#E82693" transform="translate(294,450)"/>
<path d="M0 0 C0 0.66 0 1.32 0 2 C-4.455 2.495 -4.455 2.495 -9 3 C-8.67 2.01 -8.34 1.02 -8 0 C-5.04215769 -1.22393475 -3.00272755 -0.96516243 0 0 Z " fill="#E72B94" transform="translate(348,457)"/>
<path d="M0 0 C1.14926266 0.95421808 2.29430541 1.91352045 3.4375 2.875 C4.07558594 3.40867187 4.71367187 3.94234375 5.37109375 4.4921875 C7 6 7 6 8 8 C5.83125748 7.49396008 4.00032373 7.00016187 2 6 C1.27306096 4.02111039 0.60183749 2.02045442 0 0 Z " fill="#DF369A" transform="translate(372,415)"/>
<path d="M0 0 C1.32 0 2.64 0 4 0 C2.75023244 3.65316671 2.32901247 4.78065836 -1 7 C-1.99 6.34 -2.98 5.68 -4 5 C-2.68 5 -1.36 5 0 5 C0 3.35 0 1.7 0 0 Z " fill="#6E1F86" transform="translate(236,240)"/>
<path d="M0 0 C0.66 0.33 1.32 0.66 2 1 C0.35 2.65 -1.3 4.3 -3 6 C-5 5 -5 5 -6 3 C-4.03533587 1.93224776 -2.03144641 0.93446535 0 0 Z " fill="#F5D6EC" transform="translate(376,447)"/>
<path d="M0 0 C1.98 1.65 3.96 3.3 6 5 C4.02 5.99 4.02 5.99 2 7 C0 5 0 5 -0.125 2.375 C-0.08375 1.59125 -0.0425 0.8075 0 0 Z " fill="#D63196" transform="translate(366,409)"/>
<path d="M0 0 C1.32 0 2.64 0 4 0 C5.8125 1.8125 5.8125 1.8125 7 4 C6.67 4.99 6.34 5.98 6 7 C4.02 4.69 2.04 2.38 0 0 Z " fill="#F4EAF3" transform="translate(353,395)"/>
<path d="M0 0 C1.98 1.65 3.96 3.3 6 5 C4.68 5.33 3.36 5.66 2 6 C1.67 5.01 1.34 4.02 1 3 C0.34 3 -0.32 3 -1 3 C-0.67 2.01 -0.34 1.02 0 0 Z " fill="#EEE5EF" transform="translate(219,234)"/>
<path d="M0 0 C0 1.65 0 3.3 0 5 C-1.98 4.34 -3.96 3.68 -6 3 C-3.375 0 -3.375 0 0 0 Z " fill="#E2238D" transform="translate(284,448)"/>
<path d="M0 0 C0.33 0.66 0.66 1.32 1 2 C1.66 2 2.32 2 3 2 C3 2.66 3 3.32 3 4 C3.66 4.33 4.32 4.66 5 5 C4.34 5.66 3.68 6.32 3 7 C1.35 5.02 -0.3 3.04 -2 1 C-1.34 0.67 -0.68 0.34 0 0 Z " fill="#F5EEF6" transform="translate(378,417)"/>
<path d="M0 0 C0.66 0.66 1.32 1.32 2 2 C1.96712417 4.72869407 1.43602229 7.2966618 1 10 C0.34 9.67 -0.32 9.34 -1 9 C-0.67 6.03 -0.34 3.06 0 0 Z " fill="#FAE8F2" transform="translate(226,395)"/>
<path d="M0 0 C0.66 0 1.32 0 2 0 C2 2.97 2 5.94 2 9 C1.34 8.67 0.68 8.34 0 8 C-0.6875 4.5 -0.6875 4.5 -1 1 C-0.67 0.67 -0.34 0.34 0 0 Z " fill="#6B1663" transform="translate(289,224)"/>
<path d="M0 0 C-4.75 4 -4.75 4 -7 4 C-6.625 2.0625 -6.625 2.0625 -6 0 C-3.50907189 -1.24546405 -2.58919267 -0.7767578 0 0 Z " fill="#DF268C" transform="translate(385,442)"/>
<path d="M0 0 C2.97 0.495 2.97 0.495 6 1 C4.8125 2.5625 4.8125 2.5625 3 4 C0.3125 3.6875 0.3125 3.6875 -2 3 C-1.34 2.01 -0.68 1.02 0 0 Z " fill="#E21B8C" transform="translate(266,440)"/>
<path d="M0 0 C1.65 0 3.3 0 5 0 C4.67 1.65 4.34 3.3 4 5 C3.01 5 2.02 5 1 5 C0.67 3.35 0.34 1.7 0 0 Z " fill="#DE188D" transform="translate(241,416)"/>
<path d="M0 0 C1.98 0.99 3.96 1.98 6 3 C4.02 3.99 4.02 3.99 2 5 C1.01 4.01 0.02 3.02 -1 2 C-0.67 1.34 -0.34 0.68 0 0 Z " fill="#752B8E" transform="translate(222,233)"/>
</svg>
